<?xml version="1.0" encoding="UTF-8"?>
<svg width="52px" height="162px" viewBox="0 0 52 162" version="1.1" xmlns="http://www.w3.org/2000/svg" xmlns:xlink="http://www.w3.org/1999/xlink">
    <!-- Generator: Sketch 49.1 (51147) - http://www.bohemiancoding.com/sketch -->
    <title>Group 3</title>
    <desc>Created with Sketch.</desc>
    <defs></defs>
    <g id="Portfolio-v3" stroke="none" stroke-width="1" fill="none" fill-rule="evenodd">
        <g id="Desktop-Copy-9" transform="translate(-869.000000, -878.000000)">
            <g id="Group-3" transform="translate(869.000000, 878.000000)">
                <g id="Group">
                    <rect id="Rectangle-16" fill="#272727" x="0" y="20" width="12" height="142"></rect>
                    <rect id="Rectangle-16" fill="#6A6A6A" x="0" y="20" width="3" height="142"></rect>
                    <polygon id="Rectangle-17" fill="#ED994E" points="6 0.0272907888 12 20 0 20"></polygon>
                    <polygon id="Rectangle-17" fill="#272727" points="6 0.0272907888 7.47282958 5 4.53073774 5"></polygon>
                    <polygon id="Rectangle-17" fill="#EABC93" points="6 0.0272907888 3.12251965 20 0 20"></polygon>
                    <polygon id="Rectangle-17" fill="#6A6A6A" points="6 0.0272907888 5.32348779 5 4.53073774 5"></polygon>
                </g>
                <g id="Group" transform="translate(40.000000, 18.000000)">
                    <rect id="Rectangle-16" fill="#1486CA" x="0" y="20" width="12" height="124"></rect>
                    <rect id="Rectangle-16" fill="#4AA1D6" x="0" y="20" width="3" height="124"></rect>
                    <polygon id="Rectangle-17" fill="#ED994E" points="6 0.0272907888 12 20 0 20"></polygon>
                    <polygon id="Rectangle-17" fill="#0C70AC" points="6 0.0272907888 7.47282958 5 4.53073774 5"></polygon>
                    <polygon id="Rectangle-17" fill="#EABC93" points="6 0.0272907888 3.12251965 20 0 20"></polygon>
                    <polygon id="Rectangle-17" fill="#1486CA" points="6 0.0272907888 5.32348779 5 4.53073774 5"></polygon>
                </g>
            </g>
        </g>
    </g>
</svg>